PathFileType	4	(X/Y/Z)	Patient4_TMGait_0pt7_01_left_23.trc.trc
DataRate	CameraRate	NumFrames	NumMarkers	Units	OrigDataRate	OrigDataStartFrame	OrigNumFrames
86.419753086420	86.419753086420	4	33	mm	86.419753086420	89	       141
Frame#	Time	Sacral			L.Shoulder			Chest			R.Shoulder			Neck			R.ASIS			L.ASIS			R.Thigh.Superior			R.Thigh.Lateral			R.Thigh.Inferior			R.Patella			L.Thigh.Superior			L.Thigh.Lateral			L.Thigh.Inferior			L.Patella			L.Shank.Superior			L.Shank.Lateral			L.Shank.Inferior			R.Shank.Superior			R.Shank.Lateral			R.Shank.Inferior			R.Heel			R.Midfoot.Superior			R.Midfoot.Lateral			R.Toe			L.Heel			L.Midfoot.Lateral			L.Midfoot.Superior			L.Toe			L.Elbow			L.Wrist			R.Elbow			R.Wrist			
		X1	Y1	Z1	X2	Y2	Z2	X3	Y3	Z3	X4	Y4	Z4	X5	Y5	Z5	X6	Y6	Z6	X7	Y7	Z7	X8	Y8	Z8	X9	Y9	Z9	X10	Y10	Z10	X11	Y11	Z11	X12	Y12	Z12	X13	Y13	Z13	X14	Y14	Z14	X15	Y15	Z15	X16	Y16	Z16	X17	Y17	Z17	X18	Y18	Z18	X19	Y19	Z19	X20	Y20	Z20	X21	Y21	Z21	X22	Y22	Z22	X23	Y23	Z23	X24	Y24	Z24	X25	Y25	Z25	X26	Y26	Z26	X27	Y27	Z27	X28	Y28	Z28	X29	Y29	Z29	X30	Y30	Z30	X31	Y31	Z31	X32	Y32	Z32	X33	Y33	Z33	

89	27.478285714286	837.625496408694	1001.549685869160	494.262097441517	1046.970998588327	1420.130103679769	310.279873053275	1146.735674529405	1338.210492181175	469.540423419617	1074.354269191597	1421.124955101487	643.998365486074	1059.067523572383	1479.100688788883	464.488236095889	1066.532817290419	932.123437391801	609.122079758556	1045.857804625284	947.659103081516	335.061952135432	1128.911828565032	749.240804888624	580.835744586650	1064.187205922575	633.336897833017	642.223372352652	1146.263881291085	590.287573811802	560.671072853606	1159.372362925099	501.853134561005	568.207481891357	1085.848633650594	732.073813744550	355.276780383357	998.967473164850	617.967630514735	290.883786623495	1087.578288380737	532.184274988691	344.640815497326	1077.105411930023	445.230765384300	342.366719481088	1002.225197947127	391.160318323592	340.258106159547	856.547591352245	363.912056382174	295.026220103894	828.957438117170	239.897028575984	354.946776371230	1138.440234894179	411.031312143606	577.689761576943	1078.118781491143	302.726899905377	643.268512474151	1125.810240668262	210.541711119830	579.773445406204	1002.284106220919	42.321215817286	556.950170309507	1174.735729213504	98.246927504351	583.159490131843	1089.852107528928	36.808085431907	626.199377528011	1296.715929530841	47.075169929869	603.255589761083	631.024094051359	196.889110780279	393.576026619100	685.431953435527	141.518979317039	317.804541325680	790.070357969536	141.747481633606	340.861609255491	858.523583130175	31.782765417540	322.008236617028	997.291180440709	1084.632577200984	172.873895787927	1227.253440481178	972.530510837852	198.895258210191	981.829759233044	1093.679660979299	781.272670013631	1027.443210638195	835.372778935359	798.645274467604	
90	27.489857142857	837.791195129019	1003.354069694282	496.838861623093	1046.965556963921	1421.230857470771	311.463176836454	1147.586272084103	1339.265534998574	470.170050491123	1076.387979012347	1422.313414744656	645.035912063565	1060.145989313372	1480.291676178914	465.661599239943	1066.915637229987	933.514534017379	610.697328626723	1045.766413219516	948.719595428672	336.584346781136	1126.921687747396	748.493594873554	583.061282697801	1060.505305841500	633.657256844091	643.961261495645	1141.715331736556	589.583332638645	562.015423747880	1153.599411484032	501.270000142646	569.256045553002	1090.754139549738	736.231931867885	357.534987694563	1008.654866298410	619.995246736377	291.921570329415	1099.709385007436	536.506718662348	346.188153132656	1090.979542471668	448.473832078636	343.446001497387	1015.022808904048	394.207893927512	341.131940726169	868.580769076818	370.631055046287	295.809344455201	838.028691352103	247.088438120257	355.444297284854	1132.240677235691	410.765821770980	578.700945127594	1071.419192372352	302.684473454944	644.049923555811	1118.475757794257	210.404956572356	580.262866908539	994.280777780927	42.333927339961	557.174307482633	1166.737877850789	98.167853238276	583.303885107465	1081.839670042345	36.776490304132	626.420268010062	1288.706620954594	46.996214874295	603.523108695935	639.048464540658	210.923436947193	394.082442874940	691.404987736614	153.522366376630	318.032000329554	796.380414945565	149.224309015796	341.150200700916	859.968032276671	33.362995355376	321.514272908757	991.071969153447	1084.496888310839	178.481922066882	1216.397842375074	961.652458104711	202.485826565607	991.059093939621	1093.075131541135	784.004360565242	1046.595951990327	836.532745043782	799.563903724237	
91	27.501428571429	837.823150828258	1005.177187267039	499.256076762154	1046.787742675377	1422.265691226033	312.485884888131	1148.319854004574	1340.279593090523	470.601311688580	1078.384182234554	1423.479856928411	645.895829896097	1061.100691827937	1481.451139517355	466.662269857145	1067.108480908864	934.786874308011	612.135545301905	1045.378220030382	949.638741852045	338.040306753216	1124.721178347460	747.720776209455	585.167967309217	1056.522192994782	633.907699377363	645.536561323129	1136.922655865767	588.855548187074	563.283766953424	1147.537981941901	500.706328034016	570.179808871121	1095.319112030037	740.699870119459	359.856961514635	1017.913056805174	622.589337161084	292.952466033618	1111.172845294012	541.458591379740	347.865445562273	1104.378850158032	452.464976292900	344.689765965634	1027.740343897987	397.771520682940	342.077135972065	880.823912715380	376.894823409026	296.557159068979	848.064814628428	253.711337943025	355.958675660271	1125.835277524908	410.521415788408	579.570660300202	1064.575652061478	302.654210226363	644.731669141809	1111.047309702817	210.288466490889	580.662124409279	986.215664335072	42.377496164827	557.360703597154	1158.727085852022	98.099317224090	583.438275807379	1073.764536793309	36.751424346911	626.604479393224	1280.649656278251	46.798746350953	603.737792767822	648.464312322831	222.449528700249	394.526995255463	699.336705368655	163.850930564434	318.144091897064	804.447151494003	156.206032198722	341.362799061994	864.376660005556	35.699605917695	320.815524799186	984.886674912314	1084.463726339516	183.845542260132	1204.685963237480	950.490491738327	205.732228606334	1000.575419688364	1092.577706871294	786.550871068877	1066.165011037790	838.251880408952	800.002134551527	
92	27.513000000000	837.740951127157	1006.986681732344	501.505227824257	1046.458595873852	1423.229753373159	313.366994921048	1148.939242386155	1341.234442489329	470.859076688255	1080.349810299341	1424.625525086389	646.589288541684	1061.949855417922	1482.569001384671	467.494913011037	1067.127198183713	935.940685371178	613.453346402372	1044.703442087826	950.446742980154	339.448401264196	1122.371128648338	746.968316556805	587.098043045972	1052.350193372366	634.119594901289	646.936199524553	1131.976292023511	588.131849065006	564.452158828020	1141.300666882481	500.177155481016	570.969568270943	1099.512257881723	745.421202129212	362.219527775405	1026.686399839105	625.688611951949	293.976509003195	1121.937328341307	546.947928291907	349.613030580510	1117.254219294055	457.130748992922	346.011328692176	1040.331959365524	401.759710881729	343.033434678717	893.187440383223	382.509850988026	297.243305581312	859.091080534053	259.500065104048	356.423991530303	1119.317132052419	410.305075826549	580.292935098016	1057.661644343375	302.654907614208	645.323314191670	1103.568116420364	210.194080803741	580.974031158802	978.096844886153	42.450415938672	557.518540980147	1150.705175749571	98.062445365154	583.590499834674	1065.635314846399	36.739152557227	626.760480848392	1272.552590081240	46.509921414913	603.906860563932	659.220535438083	231.035698527274	394.861185575862	709.234269712072	172.051481529612	318.096979956880	814.356323459952	162.323308075753	341.426964481946	871.991127387215	38.592300955525	319.877913984953	978.812053850897	1084.527592784902	188.943623391309	1192.095581160425	939.105287348558	208.616322920749	1010.377568888204	1092.203418912641	788.874251559953	1086.108385178814	840.582923250694	799.896513205412	
